<svg width="123" height="130" viewBox="0 0 123 130" fill="none" xmlns="http://www.w3.org/2000/svg">
<path fill-rule="evenodd" clip-rule="evenodd" d="M75.1575 1.03613L66.2892 64.652L57.0203 64.652L72.8853 0.582366L75.1575 1.03613Z" fill="#0F00B7"/>
<path fill-rule="evenodd" clip-rule="evenodd" d="M66.2894 64.6521L49.4915 129.176L47.2193 128.722L57.0205 64.6521L66.2894 64.6521Z" fill="#0F00B7"/>
<path fill-rule="evenodd" clip-rule="evenodd" d="M58.1784 69.5483L19.8417 40.1342L21.122 38.2056L61.0513 62.3194L58.1784 69.5483Z" fill="#0F00B7"/>
<path fill-rule="evenodd" clip-rule="evenodd" d="M65.1296 64.9191L121.817 100.302L120.659 102.307L60.4952 71.8604L65.1296 64.9191Z" fill="#0F00B7"/>
<path fill-rule="evenodd" clip-rule="evenodd" d="M60.757 70.172L1.2884 86.4316L0.596635 84.2234L58.1783 62.6067L60.757 70.172Z" fill="#0F00B7"/>
<path fill-rule="evenodd" clip-rule="evenodd" d="M60.7224 61.4487L110.24 51.7118L110.861 53.9409L61.655 70.7038L60.7224 61.4487Z" fill="#0F00B7"/>
</svg>
