<svg width="295px" height="454px" viewBox="0 0 295 454" xmlns="http://www.w3.org/2000/svg">
 <path id="Path" d="M1 227.5 L1 370 C1 372.761 3.239 375 6 375 L154 375 C156.761 375 159 372.761 159 370 L159 85 C159 82.239 156.761 80 154 80 L6 80 C3.239 80 1 82.239 1 85 Z" fill="#fffbef" fill-opacity="1" stroke="#0f00b7" stroke-width="2" stroke-opacity="1" stroke-linejoin="round" stroke-linecap="round"/>
 <path id="Path-1" d="M124.406 166.712 L121.595 155" fill="none" stroke="#0f00b7" stroke-width="2" stroke-opacity="1" stroke-linejoin="round" stroke-linecap="round"/>
 <path id="Path-2" d="M117.89 164.043 L128.11 157.669" fill="none" stroke="#0f00b7" stroke-width="2" stroke-opacity="1" stroke-linejoin="round" stroke-linecap="round"/>
 <path id="Path-3" d="M117.181 159.303 L128.819 162.409" fill="none" stroke="#0f00b7" stroke-width="2" stroke-opacity="1" stroke-linejoin="round" stroke-linecap="round"/>
 <path id="Path-4" d="M291.106 220.948 L293.062 216.751 C293.295 216.25 293.078 215.655 292.577 215.422 L288.991 213.751 C288.49 213.518 287.895 213.735 287.662 214.235 L283.751 222.631 C283.518 223.131 283.735 223.726 284.236 223.959 L287.822 225.63 C288.323 225.863 288.918 225.646 289.151 225.146 Z" fill="#fffbef" fill-opacity="1" stroke="#0f00b7" stroke-width="2" stroke-opacity="1" stroke-linejoin="round" stroke-linecap="round"/>
 <path id="Path-5" d="M209.474 198.722 C207.529 202.904 202.563 204.718 198.38 202.774 194.198 200.829 192.384 195.863 194.328 191.68 196.273 187.498 201.239 185.684 205.422 187.628 209.604 189.573 211.418 194.539 209.474 198.722 Z" fill="#fffbef" fill-opacity="1" stroke="#0f00b7" stroke-width="2" stroke-opacity="1" stroke-linejoin="round" stroke-linecap="round"/>
 <path id="Path-6" d="M179.138 214.742 C185.549 236.182 196.752 246.595 211.908 244.495 227.118 242.387 237.983 229.438 236.361 206.628 236.281 205.497 235.25 204.688 234.127 204.843 L180.768 212.237 C179.571 212.403 178.792 213.584 179.138 214.742 Z" fill="#fffbef" fill-opacity="1" stroke="#0f00b7" stroke-width="2" stroke-opacity="1" stroke-linejoin="round" stroke-linecap="round"/>
 <path id="Path-7" d="M178.999 212.5 C144.999 212.5 133.5 179 133.5 179" fill="none" stroke="#0f00b7" stroke-width="2" stroke-opacity="1" stroke-linejoin="round" stroke-linecap="round"/>
 <path id="Path-8" d="M235.171 204.961 C249 229.5 287.499 229.5 287.499 229.5" fill="none" stroke="#0f00b7" stroke-width="2" stroke-opacity="1" stroke-linejoin="round" stroke-linecap="round"/>
 <path id="Path-9" d="M204.047 244.94 L197.933 268.893 215.684 303.02 205.036 312.508 C203.296 314.059 200.76 311.886 202.026 309.929 L206.335 303.267 189.661 269.731 196.89 242.111" fill="none" stroke="#0f00b7" stroke-width="2" stroke-opacity="1" stroke-linejoin="round" stroke-linecap="round"/>
 <path id="Path-10" d="M226.241 238.446 L228.74 266.229 258.384 290.088 252.144 304.566 C251.284 306.56 248.31 305.949 248.307 303.778 L248.287 291.448 221.323 270.191 218.501 243.5" fill="none" stroke="#0f00b7" stroke-width="2" stroke-opacity="1" stroke-linejoin="round" stroke-linecap="round"/>
 <path id="Path-11" d="M74.448 168.932 L52.478 130.081 C51.984 129.208 50.92 128.836 49.99 129.211 L40.933 132.859 C40.323 133.105 39.873 133.635 39.729 134.277 L29.498 179.944 C29.172 181.399 30.496 182.686 31.941 182.32 L73.199 171.855 C74.477 171.531 75.097 170.08 74.448 168.932 Z" fill="#fffbef" fill-opacity="1" stroke="#0f00b7" stroke-width="2" stroke-opacity="1" stroke-linejoin="round" stroke-linecap="round"/>
 <path id="Path-12" d="M51.897 116.262 C51.657 120.868 47.728 124.406 43.122 124.166 38.516 123.925 34.977 119.996 35.218 115.391 35.458 110.785 39.387 107.246 43.993 107.487 48.599 107.727 52.138 111.656 51.897 116.262 Z" fill="#fffbef" fill-opacity="1" stroke="#0f00b7" stroke-width="2" stroke-opacity="1" stroke-linejoin="round" stroke-linecap="round"/>
 <path id="Path-13" d="M66.914 174.084 L86.5 188.5 97.001 228 105.708 232.621 C107.728 233.692 106.659 236.767 104.41 236.355 L91.503 233.988 77.839 191.989 56.007 177.055" fill="none" stroke="#0f00b7" stroke-width="2" stroke-opacity="1" stroke-linejoin="round" stroke-linecap="round"/>
 <path id="Path-14" d="M50.28 178.777 L65.999 198 57.423 229.617 64.162 236.81 C65.726 238.478 63.718 241.04 61.724 239.922 L50.281 233.5 57.209 199.423 41.643 180.587" fill="none" stroke="#0f00b7" stroke-width="2" stroke-opacity="1" stroke-linejoin="round" stroke-linecap="round"/>
 <path id="Path-15" d="M51.499 129 C71 149 102.5 149 102.5 149" fill="none" stroke="#0f00b7" stroke-width="2" stroke-opacity="1" stroke-linejoin="round" stroke-linecap="round"/>
 <path id="Path-16" d="M41 133 C18.5 146.5 10 178.5 10 178.5" fill="none" stroke="#0f00b7" stroke-width="2" stroke-opacity="1" stroke-linejoin="round" stroke-linecap="round"/>
 <path id="Path-17" d="M146 267 L14 267 C11.239 267 9 269.239 9 272 L9 346 9 356.528 C9 357.46 10.163 357.886 10.764 357.173 L18.938 347.486 C20.268 345.91 22.225 345 24.288 345 L146 345 C148.761 345 151 342.761 151 340 L151 272 C151 269.239 148.761 267 146 267 Z" fill="#fffbef" fill-opacity="1" stroke="#0f00b7" stroke-width="2" stroke-opacity="1" stroke-linejoin="round" stroke-linecap="round"/>
 <path id="Path-18" d="M33 289 L33 292 C33 292.552 32.552 293 32 293 L26 293 C25.448 293 25 292.552 25 292 L25 286 C25 285.448 25.448 285 26 285 L32 285 C32.552 285 33 285.448 33 286 Z" fill="none" stroke="#0f00b7" stroke-width="2" stroke-opacity="1" stroke-linejoin="round" stroke-linecap="round"/>
 <path id="Path-19" d="M45 289 L45 292 C45 292.552 44.552 293 44 293 L38 293 C37.448 293 37 292.552 37 292 L37 286 C37 285.448 37.448 285 38 285 L44 285 C44.552 285 45 285.448 45 286 Z" fill="none" stroke="#0f00b7" stroke-width="2" stroke-opacity="1" stroke-linejoin="round" stroke-linecap="round"/>
 <path id="Path-20" d="M57 289 L57 292 C57 292.552 56.552 293 56 293 L50 293 C49.448 293 49 292.552 49 292 L49 286 C49 285.448 49.448 285 50 285 L56 285 C56.552 285 57 285.448 57 286 Z" fill="none" stroke="#0f00b7" stroke-width="2" stroke-opacity="1" stroke-linejoin="round" stroke-linecap="round"/>
 <path id="Path-21" d="M33 305 L33 308 C33 308.552 32.552 309 32 309 L26 309 C25.448 309 25 308.552 25 308 L25 302 C25 301.448 25.448 301 26 301 L32 301 C32.552 301 33 301.448 33 302 Z" fill="none" stroke="#0f00b7" stroke-width="2" stroke-opacity="1" stroke-linejoin="round" stroke-linecap="round"/>
 <path id="Path-22" d="M33 321 L33 324 C33 324.552 32.552 325 32 325 L26 325 C25.448 325 25 324.552 25 324 L25 318 C25 317.448 25.448 317 26 317 L32 317 C32.552 317 33 317.448 33 318 Z" fill="none" stroke="#0f00b7" stroke-width="2" stroke-opacity="1" stroke-linejoin="round" stroke-linecap="round"/>
 <path id="Path-23" d="M55 321 L55 324 C55 324.552 54.552 325 54 325 L48 325 C47.448 325 47 324.552 47 324 L47 318 C47 317.448 47.448 317 48 317 L54 317 C54.552 317 55 317.448 55 318 Z" fill="none" stroke="#0f00b7" stroke-width="2" stroke-opacity="1" stroke-linejoin="round" stroke-linecap="round"/>
 <path id="Path-24" d="M67 321 L67 324 C67 324.552 66.552 325 66 325 L60 325 C59.448 325 59 324.552 59 324 L59 318 C59 317.448 59.448 317 60 317 L66 317 C66.552 317 67 317.448 67 318 Z" fill="none" stroke="#0f00b7" stroke-width="2" stroke-opacity="1" stroke-linejoin="round" stroke-linecap="round"/>
 <path id="Path-25" d="M79 321 L79 324 C79 324.552 78.552 325 78 325 L72 325 C71.448 325 71 324.552 71 324 L71 318 C71 317.448 71.448 317 72 317 L78 317 C78.552 317 79 317.448 79 318 Z" fill="none" stroke="#0f00b7" stroke-width="2" stroke-opacity="1" stroke-linejoin="round" stroke-linecap="round"/>
 <path id="Path-26" d="M105 321 L105 324 C105 324.552 104.552 325 104 325 L98 325 C97.448 325 97 324.552 97 324 L97 318 C97 317.448 97.448 317 98 317 L104 317 C104.552 317 105 317.448 105 318 Z" fill="none" stroke="#0f00b7" stroke-width="2" stroke-opacity="1" stroke-linejoin="round" stroke-linecap="round"/>
 <path id="Path-27" d="M117 321 L117 324 C117 324.552 116.552 325 116 325 L110 325 C109.448 325 109 324.552 109 324 L109 318 C109 317.448 109.448 317 110 317 L116 317 C116.552 317 117 317.448 117 318 Z" fill="none" stroke="#0f00b7" stroke-width="2" stroke-opacity="1" stroke-linejoin="round" stroke-linecap="round"/>
 <path id="Path-28" d="M129 321 L129 324 C129 324.552 128.552 325 128 325 L122 325 C121.448 325 121 324.552 121 324 L121 318 C121 317.448 121.448 317 122 317 L128 317 C128.552 317 129 317.448 129 318 Z" fill="none" stroke="#0f00b7" stroke-width="2" stroke-opacity="1" stroke-linejoin="round" stroke-linecap="round"/>
 <path id="Path-29" d="M45 305 L45 308 C45 308.552 44.552 309 44 309 L38 309 C37.448 309 37 308.552 37 308 L37 302 C37 301.448 37.448 301 38 301 L44 301 C44.552 301 45 301.448 45 302 Z" fill="none" stroke="#0f00b7" stroke-width="2" stroke-opacity="1" stroke-linejoin="round" stroke-linecap="round"/>
 <path id="Path-30" d="M57 305 L57 308 C57 308.552 56.552 309 56 309 L50 309 C49.448 309 49 308.552 49 308 L49 302 C49 301.448 49.448 301 50 301 L56 301 C56.552 301 57 301.448 57 302 Z" fill="none" stroke="#0f00b7" stroke-width="2" stroke-opacity="1" stroke-linejoin="round" stroke-linecap="round"/>
 <path id="Path-31" d="M69 305 L69 308 C69 308.552 68.552 309 68 309 L62 309 C61.448 309 61 308.552 61 308 L61 302 C61 301.448 61.448 301 62 301 L68 301 C68.552 301 69 301.448 69 302 Z" fill="none" stroke="#0f00b7" stroke-width="2" stroke-opacity="1" stroke-linejoin="round" stroke-linecap="round"/>
 <path id="Path-32" d="M81 305 L81 308 C81 308.552 80.552 309 80 309 L74 309 C73.448 309 73 308.552 73 308 L73 302 C73 301.448 73.448 301 74 301 L80 301 C80.552 301 81 301.448 81 302 Z" fill="none" stroke="#0f00b7" stroke-width="2" stroke-opacity="1" stroke-linejoin="round" stroke-linecap="round"/>
 <path id="Path-33" d="M103 305 L103 308 C103 308.552 102.552 309 102 309 L96 309 C95.448 309 95 308.552 95 308 L95 302 C95 301.448 95.448 301 96 301 L102 301 C102.552 301 103 301.448 103 302 Z" fill="none" stroke="#0f00b7" stroke-width="2" stroke-opacity="1" stroke-linejoin="round" stroke-linecap="round"/>
 <path id="Path-34" d="M115 305 L115 308 C115 308.552 114.552 309 114 309 L108 309 C107.448 309 107 308.552 107 308 L107 302 C107 301.448 107.448 301 108 301 L114 301 C114.552 301 115 301.448 115 302 Z" fill="none" stroke="#0f00b7" stroke-width="2" stroke-opacity="1" stroke-linejoin="round" stroke-linecap="round"/>
 <path id="Path-35" d="M127 305 L127 308 C127 308.552 126.552 309 126 309 L120 309 C119.448 309 119 308.552 119 308 L119 302 C119 301.448 119.448 301 120 301 L126 301 C126.552 301 127 301.448 127 302 Z" fill="none" stroke="#0f00b7" stroke-width="2" stroke-opacity="1" stroke-linejoin="round" stroke-linecap="round"/>
 <path id="Path-36" d="M139 305 L139 308 C139 308.552 138.552 309 138 309 L132 309 C131.448 309 131 308.552 131 308 L131 302 C131 301.448 131.448 301 132 301 L138 301 C138.552 301 139 301.448 139 302 Z" fill="none" stroke="#0f00b7" stroke-width="2" stroke-opacity="1" stroke-linejoin="round" stroke-linecap="round"/>
 <path id="Path-37" d="M79 289 L79 292 C79 292.552 78.552 293 78 293 L72 293 C71.448 293 71 292.552 71 292 L71 286 C71 285.448 71.448 285 72 285 L78 285 C78.552 285 79 285.448 79 286 Z" fill="none" stroke="#0f00b7" stroke-width="2" stroke-opacity="1" stroke-linejoin="round" stroke-linecap="round"/>
 <path id="Path-38" d="M91 289 L91 292 C91 292.552 90.552 293 90 293 L84 293 C83.448 293 83 292.552 83 292 L83 286 C83 285.448 83.448 285 84 285 L90 285 C90.552 285 91 285.448 91 286 Z" fill="none" stroke="#0f00b7" stroke-width="2" stroke-opacity="1" stroke-linejoin="round" stroke-linecap="round"/>
 <path id="Path-39" d="M103 289 L103 292 C103 292.552 102.552 293 102 293 L96 293 C95.448 293 95 292.552 95 292 L95 286 C95 285.448 95.448 285 96 285 L102 285 C102.552 285 103 285.448 103 286 Z" fill="none" stroke="#0f00b7" stroke-width="2" stroke-opacity="1" stroke-linejoin="round" stroke-linecap="round"/>
 <path id="Path-40" d="M115 289 L115 292 C115 292.552 114.552 293 114 293 L108 293 C107.448 293 107 292.552 107 292 L107 286 C107 285.448 107.448 285 108 285 L114 285 C114.552 285 115 285.448 115 286 Z" fill="none" stroke="#0f00b7" stroke-width="2" stroke-opacity="1" stroke-linejoin="round" stroke-linecap="round"/>
 <path id="Path-41" d="M127 289 L127 292 C127 292.552 126.552 293 126 293 L120 293 C119.448 293 119 292.552 119 292 L119 286 C119 285.448 119.448 285 120 285 L126 285 C126.552 285 127 285.448 127 286 Z" fill="none" stroke="#0f00b7" stroke-width="2" stroke-opacity="1" stroke-linejoin="round" stroke-linecap="round"/>
</svg>
