<svg width="556" height="301" viewBox="0 0 556 301" fill="none" xmlns="http://www.w3.org/2000/svg">
<path d="M445.243 80.7844L446.61 68.8171" stroke="#0F00B7" stroke-width="2" stroke-linecap="round"/>
<path d="M451.387 77.3432L440.468 72.2579" stroke="#0F00B7" stroke-width="2" stroke-linecap="round"/>
<path d="M451.514 72.5519L440.34 77.049" stroke="#0F00B7" stroke-width="2" stroke-linecap="round"/>
<path d="M453.507 98.9146L454.874 86.9473" stroke="#0F00B7" stroke-width="2" stroke-linecap="round"/>
<path d="M459.65 95.4734L448.731 90.388" stroke="#0F00B7" stroke-width="2" stroke-linecap="round"/>
<path d="M459.777 90.6821L448.603 95.1792" stroke="#0F00B7" stroke-width="2" stroke-linecap="round"/>
<path d="M436.855 111.028L438.222 99.0603" stroke="#0F00B7" stroke-width="2" stroke-linecap="round"/>
<path d="M442.998 107.586L432.079 102.501" stroke="#0F00B7" stroke-width="2" stroke-linecap="round"/>
<path d="M443.125 102.795L431.951 107.292" stroke="#0F00B7" stroke-width="2" stroke-linecap="round"/>
<circle r="8.35106" transform="matrix(-0.818742 0.574161 0.574161 0.818742 497.66 25.0251)" fill="#FFFBEF" stroke="#0F00B7" stroke-width="2"/>
<path d="M481.611 34.1887L529.914 51.4923C530.954 51.8648 531.495 53.0097 531.122 54.0496L522.354 78.5264C521.982 79.5663 520.837 80.1073 519.797 79.7348L471.494 62.4313C470.454 62.0588 469.913 60.9138 470.285 59.8739L479.054 35.3971C479.426 34.3572 480.571 33.8162 481.611 34.1887Z" fill="#FFFBEF" stroke="#0F00B7" stroke-width="2"/>
<path d="M481.791 34.0644C441.972 30.8103 429.115 55.4412 429.115 55.4412" stroke="#0F00B7" stroke-width="2" stroke-linecap="round"/>
<path d="M530.049 51.6985C558.886 68.8635 553.919 101.633 553.919 101.633" stroke="#0F00B7" stroke-width="2" stroke-linecap="round"/>
<path d="M484.804 68.8417L474.943 93.3317L488.138 139.763L483.669 150.61C482.786 152.753 485.645 154.43 487.085 152.614L497.627 139.317L482.482 93.9785L491.937 71.5098" stroke="#0F00B7" stroke-width="2" stroke-linecap="round"/>
<path d="M498.976 72.1801L496.459 103.833L515.811 153.479L513.325 164.939C512.849 167.133 515.793 168.326 516.978 166.419L525.301 153.033L504.451 103.458L506.109 74.8482" stroke="#0F00B7" stroke-width="2" stroke-linecap="round"/>
<circle r="8.35106" transform="matrix(-0.620464 0.784235 0.784235 0.620464 405.951 134.467)" fill="#FFFBEF" stroke="#0F00B7" stroke-width="2"/>
<path d="M428.32 172.033L428.32 172.033C427.557 170.719 426.824 169.444 426.116 168.211C423.308 163.322 420.885 159.102 418.454 155.853C415.407 151.781 412.535 149.501 409.169 149.24C405.758 148.976 402.719 150.457 399.204 153.779C395.686 157.105 391.848 162.124 386.831 168.687L386.753 168.789C384.011 172.375 383.229 175.37 383.582 177.83C383.937 180.299 385.465 182.45 387.798 184.275C392.499 187.952 400.11 190.017 405.974 190.471C411.74 190.918 419.218 189.216 424.287 185.867C426.814 184.197 428.654 182.178 429.455 179.905C430.242 177.673 430.076 175.055 428.32 172.033Z" fill="#FFFBEF" stroke="#0F00B7" stroke-width="2"/>
<path d="M459.385 120.459C459.577 119.941 459.313 119.366 458.795 119.174C458.277 118.982 457.702 119.246 457.51 119.764L459.385 120.459ZM408.632 150.131C427.133 153.845 439.866 146.397 447.923 138.049C451.941 133.886 454.801 129.498 456.656 126.155C457.584 124.483 458.263 123.067 458.712 122.066C458.936 121.566 459.103 121.168 459.214 120.894C459.27 120.757 459.312 120.65 459.34 120.577C459.354 120.54 459.365 120.512 459.373 120.492C459.376 120.482 459.379 120.475 459.381 120.469C459.382 120.466 459.383 120.464 459.384 120.462C459.384 120.462 459.385 120.461 459.385 120.46C459.385 120.46 459.385 120.459 458.447 120.112C457.51 119.764 457.51 119.764 457.51 119.764C457.51 119.764 457.51 119.764 457.51 119.764C457.51 119.765 457.509 119.766 457.509 119.768C457.507 119.771 457.505 119.776 457.502 119.784C457.497 119.799 457.488 119.822 457.475 119.854C457.451 119.918 457.413 120.014 457.361 120.141C457.258 120.395 457.101 120.771 456.886 121.249C456.458 122.204 455.804 123.568 454.907 125.185C453.111 128.422 450.349 132.655 446.484 136.66C438.775 144.647 426.698 151.718 409.026 148.17L408.632 150.131Z" fill="#0F00B7"/>
<path d="M412.48 191.165L417.022 217.392L393.403 254.387L406.321 267.324C407.864 268.869 410.413 267.177 409.588 265.155L404.017 251.5L423.95 218.099L420.2 189.065" stroke="#0F00B7" stroke-width="2"/>
<path d="M401.561 191.025L390.888 214.654L351.46 220.195L346.813 233.184C346.047 235.323 342.875 234.733 342.93 232.462L343.351 215.146L386.156 208.687L394.239 188.871" stroke="#0F00B7" stroke-width="2"/>
<path d="M408.172 149.082C370.646 151.157 359.332 186.292 359.332 186.292" stroke="#0F00B7" stroke-width="2" stroke-linecap="round"/>
<path d="M158.045 142.442L167.415 103.4" stroke="#0F00B7" stroke-width="4" stroke-linecap="round"/>
<path d="M179.766 133.544L145.699 112.296" stroke="#0F00B7" stroke-width="4" stroke-linecap="round"/>
<path d="M182.135 117.745L143.342 128.099" stroke="#0F00B7" stroke-width="4" stroke-linecap="round"/>
<circle r="8.35106" transform="matrix(-0.842805 0.538218 0.538218 0.842805 65.2455 182.415)" fill="#FFFBEF" stroke="#0F00B7" stroke-width="2"/>
<path d="M34.6287 202.544C40.6636 224.093 51.6826 234.7 66.8732 232.865C82.1177 231.024 93.2071 218.267 91.9843 195.431C91.9237 194.3 90.9072 193.472 89.7822 193.608L36.3016 200.068C35.1026 200.213 34.303 201.381 34.6287 202.544Z" fill="#FFFBEF" stroke="#0F00B7" stroke-width="2" stroke-linecap="round"/>
<path d="M85.8803 222.318L112.031 225.918L135.243 261.48L144.169 262.312C146.473 262.526 146.634 265.831 144.361 266.267L131.449 268.748L107.636 232.639L79.5302 228.337" stroke="#0F00B7" stroke-width="2"/>
<path d="M52.2637 229.909L70.1119 241.442L85.4833 252.635L103.581 289.941L116.113 289.233C118.212 289.115 118.73 286.253 116.806 285.406L107.776 281.432L91.6118 248.429L70.0967 232.355" stroke="#0F00B7" stroke-width="2"/>
<path d="M90.6122 193.397C119.05 187.702 136.131 151.949 136.131 151.949" stroke="#0F00B7" stroke-width="2" stroke-linecap="round"/>
<path d="M34.564 200.789C14.347 225.309 38.5814 257.893 38.5814 257.893" stroke="#0F00B7" stroke-width="2" stroke-linecap="round"/>
<circle r="19.1398" transform="matrix(-0.952938 -0.303166 -0.303166 0.952938 246.874 191.272)" fill="#FFFBEF" stroke="#0F00B7" stroke-width="2"/>
<circle r="8.35106" transform="matrix(-0.999954 -0.00955907 -0.00955907 0.999954 247.417 159.64)" fill="#FFFBEF" stroke="#0F00B7" stroke-width="2"/>
<path d="M236.039 206.976L227.81 236.325L247.957 274.785L245.562 286.593C245.101 288.866 248.228 289.97 249.297 287.912L257.066 272.946L235.381 235.473L242.267 210.792" stroke="#0F00B7" stroke-width="2" stroke-linecap="round"/>
<path d="M249.436 211.686L255.399 237.672L289.094 256.886L288.795 266.912C288.727 269.191 291.914 269.79 292.679 267.642L297.644 253.684L261.49 233.218L255.778 208.351" stroke="#0F00B7" stroke-width="2" stroke-linecap="round"/>
<path d="M241.457 172.782C205.911 176.991 186.051 146.729 186.051 146.729" stroke="#0F00B7" stroke-width="2" stroke-linecap="round"/>
<path d="M250.088 172.533C289.241 177.758 288.806 222.595 288.806 222.595" stroke="#0F00B7" stroke-width="2" stroke-linecap="round"/>
<circle r="8.35106" transform="matrix(-0.728467 0.685081 0.685081 0.728467 224.688 20.2182)" fill="#FFFBEF" stroke="#0F00B7" stroke-width="2"/>
<path d="M291.529 44.1818C272.506 26.1707 249.206 20.336 234.876 32.9226C221.793 44.4147 227.398 70.586 245.364 87.9932L291.529 44.1818Z" fill="#FFFBEF" stroke="#0F00B7" stroke-width="2" stroke-linecap="round"/>
<path d="M228.269 43.8847C224.327 79.8808 189.407 100.156 189.407 100.156" stroke="#0F00B7" stroke-width="2" stroke-linecap="round"/>
<path d="M258.9 76.565L279.906 98.2723L320.905 100.115L326.456 112.016C327.428 114.101 330.574 113.165 330.248 110.888L327.536 91.9129L282.299 91.5808L263.208 70.7828" stroke="#0F00B7" stroke-width="2" stroke-linecap="round"/>
<path d="M273.416 63.2058L294.788 81.7329L344.411 81.7039L351.028 91.2188C352.274 93.0113 355.081 91.7947 354.626 89.6595L351.43 74.687L298.85 75.4281L278.547 57.8274" stroke="#0F00B7" stroke-width="2" stroke-linecap="round"/>
<path d="M238.972 30.071C268.293 12.4417 305.589 22.3143 305.589 22.3143" stroke="#0F00B7" stroke-width="2" stroke-linecap="round"/>
<circle r="8.35106" transform="matrix(-0.652574 0.757724 0.757724 0.652574 104.872 17.5699)" fill="#FFFBEF" stroke="#0F00B7" stroke-width="2"/>
<path d="M75.7614 24.0207L120.576 35.2418C121.647 35.51 122.298 36.5962 122.03 37.6676L114.686 66.9953C114.418 68.0668 113.332 68.7179 112.261 68.4496L67.4464 57.2286C66.3749 56.9603 65.7238 55.8742 65.9921 54.8027L73.3355 25.4751C73.6038 24.4036 74.6899 23.7524 75.7614 24.0207Z" fill="#FFFBEF" stroke="#0F00B7" stroke-width="2"/>
<path d="M102.69 67.1451L75.2212 88.2801L54.7209 130.574L40.2024 130.038C37.922 129.954 37.5387 126.731 39.7358 126.114L49.9347 123.253L68.0223 84.7907L93.4875 64.3512" stroke="#0F00B7" stroke-width="2" stroke-linecap="round"/>
<path d="M83.8361 61.3393L54.1034 80.2658L26.0093 123.324L10.0218 121.14C7.87167 120.847 7.66277 117.819 9.75218 117.233L22.9816 113.521L47.3407 75.8766L73.9651 58.7772" stroke="#0F00B7" stroke-width="2" stroke-linecap="round"/>
<path d="M121 35.5C161 55.5 161 91 161 91" stroke="#0F00B7" stroke-width="2" stroke-linecap="round"/>
<path d="M75 24C31 21 15.5 1 15.5 1" stroke="#0F00B7" stroke-width="2" stroke-linecap="round"/>
</svg>
