<svg id="esz9UqQXgJN1" xmlns="http://www.w3.org/2000/svg" xmlns:xlink="http://www.w3.org/1999/xlink" viewBox="0 0 474 156" shape-rendering="geometricPrecision" text-rendering="geometricPrecision"><style><![CDATA[#esz9UqQXgJN2_to {animation: esz9UqQXgJN2_to__to 3000ms linear infinite normal forwards}@keyframes esz9UqQXgJN2_to__to { 0% {transform: translate(239.500145px,72.000073px);animation-timing-function: cubic-bezier(0.42,0,0.58,1)} 50% {transform: translate(239.500008px,76.000229px);animation-timing-function: cubic-bezier(0.42,0,0.58,1)} 100% {transform: translate(239.500145px,72.000073px)}} #esz9UqQXgJN5_to {animation: esz9UqQXgJN5_to__to 3000ms linear infinite normal forwards}@keyframes esz9UqQXgJN5_to__to { 0% {transform: translate(206.065498px,105.102001px);animation-timing-function: cubic-bezier(0.42,0,0.58,1)} 16.666667% {transform: translate(217.887498px,96.102001px);animation-timing-function: cubic-bezier(0.42,0,0.58,1)} 33.333333% {transform: translate(206.065498px,105.102001px);animation-timing-function: cubic-bezier(0.42,0,0.58,1)} 50% {transform: translate(217.887498px,96.102001px);animation-timing-function: cubic-bezier(0.42,0,0.58,1)} 66.666667% {transform: translate(206.065498px,105.102001px);animation-timing-function: cubic-bezier(0.42,0,0.58,1)} 83.333333% {transform: translate(217.887498px,96.102001px);animation-timing-function: cubic-bezier(0.42,0,0.58,1)} 100% {transform: translate(206.065498px,105.102001px)}} #esz9UqQXgJN6_to {animation: esz9UqQXgJN6_to__to 3000ms linear infinite normal forwards}@keyframes esz9UqQXgJN6_to__to { 0% {transform: translate(194.482498px,63.862148px);animation-timing-function: cubic-bezier(0.42,0,0.58,1)} 13.333333% {transform: translate(207.146498px,66.720348px);animation-timing-function: cubic-bezier(0.42,0,0.58,1)} 30% {transform: translate(194.482498px,63.862148px);animation-timing-function: cubic-bezier(0.42,0,0.58,1)} 46.666667% {transform: translate(207.146498px,66.720348px);animation-timing-function: cubic-bezier(0.42,0,0.58,1)} 63.333333% {transform: translate(194.482498px,63.862148px);animation-timing-function: cubic-bezier(0.42,0,0.58,1)} 80% {transform: translate(207.146498px,66.720348px);animation-timing-function: cubic-bezier(0.42,0,0.58,1)} 96.666667% {transform: translate(194.482498px,63.862148px)} 100% {transform: translate(194.482498px,63.862148px)}} #esz9UqQXgJN7_to {animation: esz9UqQXgJN7_to__to 3000ms linear infinite normal forwards}@keyframes esz9UqQXgJN7_to__to { 0% {transform: translate(224.707001px,34.029751px);animation-timing-function: cubic-bezier(0.42,0,0.58,1)} 16.666667% {transform: translate(227.707001px,42.529751px);animation-timing-function: cubic-bezier(0.42,0,0.58,1)} 33.333333% {transform: translate(224.707001px,34.029751px);animation-timing-function: cubic-bezier(0.42,0,0.58,1)} 50% {transform: translate(227.707001px,42.529751px);animation-timing-function: cubic-bezier(0.42,0,0.58,1)} 66.666667% {transform: translate(224.707001px,34.029751px);animation-timing-function: cubic-bezier(0.42,0,0.58,1)} 83.333333% {transform: translate(227.707001px,42.529751px);animation-timing-function: cubic-bezier(0.42,0,0.58,1)} 100% {transform: translate(224.707001px,34.029751px)}} #esz9UqQXgJN8_to {animation: esz9UqQXgJN8_to__to 3000ms linear infinite normal forwards}@keyframes esz9UqQXgJN8_to__to { 0% {transform: translate(269.466003px,39.5508px);animation-timing-function: cubic-bezier(0.42,0,0.58,1)} 13.333333% {transform: translate(264.466003px,46.0131px);animation-timing-function: cubic-bezier(0.42,0,0.58,1)} 30% {transform: translate(269.466003px,39.5508px);animation-timing-function: cubic-bezier(0.42,0,0.58,1)} 46.666667% {transform: translate(264.466003px,46.0131px);animation-timing-function: cubic-bezier(0.42,0,0.58,1)} 63.333333% {transform: translate(269.466003px,39.5508px);animation-timing-function: cubic-bezier(0.42,0,0.58,1)} 80% {transform: translate(264.466003px,46.0131px);animation-timing-function: cubic-bezier(0.42,0,0.58,1)} 96.666667% {transform: translate(269.466003px,39.5508px)} 100% {transform: translate(269.466003px,39.5508px)}} #esz9UqQXgJN9_to {animation: esz9UqQXgJN9_to__to 3000ms linear infinite normal forwards}@keyframes esz9UqQXgJN9_to__to { 0% {transform: translate(285.817498px,76.700101px);animation-timing-function: cubic-bezier(0.42,0,0.58,1)} 16.666667% {transform: translate(278.213325px,75.824935px);animation-timing-function: cubic-bezier(0.42,0,0.58,1)} 33.333333% {transform: translate(285.817498px,76.700101px);animation-timing-function: cubic-bezier(0.42,0,0.58,1)} 50% {transform: translate(278.213325px,75.824935px);animation-timing-function: cubic-bezier(0.42,0,0.58,1)} 66.666667% {transform: translate(285.817498px,76.700101px);animation-timing-function: cubic-bezier(0.42,0,0.58,1)} 83.333333% {transform: translate(278.213325px,75.824935px);animation-timing-function: cubic-bezier(0.42,0,0.58,1)} 100% {transform: translate(285.817498px,76.700101px)}} #esz9UqQXgJN10_to {animation: esz9UqQXgJN10_to__to 3000ms linear infinite normal forwards}@keyframes esz9UqQXgJN10_to__to { 0% {transform: translate(258.717987px,109px);animation-timing-function: cubic-bezier(0.42,0,0.58,1)} 13.333333% {transform: translate(255.249987px,103px);animation-timing-function: cubic-bezier(0.42,0,0.58,1)} 30% {transform: translate(258.717987px,109px);animation-timing-function: cubic-bezier(0.42,0,0.58,1)} 46.666667% {transform: translate(255.249987px,103px);animation-timing-function: cubic-bezier(0.42,0,0.58,1)} 63.333333% {transform: translate(258.717987px,109px);animation-timing-function: cubic-bezier(0.42,0,0.58,1)} 80% {transform: translate(255.249987px,103px);animation-timing-function: cubic-bezier(0.42,0,0.58,1)} 96.666667% {transform: translate(258.717987px,109px)} 100% {transform: translate(258.717987px,109px)}} #esz9UqQXgJN11_to {animation: esz9UqQXgJN11_to__to 3000ms linear infinite normal forwards}@keyframes esz9UqQXgJN11_to__to { 0% {transform: translate(415px,77.868492px);animation-timing-function: cubic-bezier(0.42,0,0.58,1)} 50% {transform: translate(415px,74.237977px);animation-timing-function: cubic-bezier(0.42,0,0.58,1)} 100% {transform: translate(415px,77.868492px)}} #esz9UqQXgJN15_tr {animation: esz9UqQXgJN15_tr__tr 3000ms linear infinite normal forwards}@keyframes esz9UqQXgJN15_tr__tr { 0% {transform: translate(437.463917px,63.869484px) rotate(0deg);animation-timing-function: cubic-bezier(0.42,0,0.58,1)} 50% {transform: translate(437.463917px,63.869484px) rotate(3deg);animation-timing-function: cubic-bezier(0.42,0,0.58,1)} 100% {transform: translate(437.463917px,63.869484px) rotate(0deg)}} #esz9UqQXgJN16_tr {animation: esz9UqQXgJN16_tr__tr 3000ms linear infinite normal forwards}@keyframes esz9UqQXgJN16_tr__tr { 0% {transform: translate(429.5px,31px) rotate(0deg);animation-timing-function: cubic-bezier(0.42,0,0.58,1)} 50% {transform: translate(429.5px,31px) rotate(-4deg)} 100% {transform: translate(429.5px,31px) rotate(0deg)}} #esz9UqQXgJN17_tr {animation: esz9UqQXgJN17_tr__tr 3000ms linear infinite normal forwards}@keyframes esz9UqQXgJN17_tr__tr { 0% {transform: translate(413px,35.5px) rotate(0deg);animation-timing-function: cubic-bezier(0.42,0,0.58,1)} 50% {transform: translate(413px,35.5px) rotate(4deg);animation-timing-function: cubic-bezier(0.42,0,0.58,1)} 100% {transform: translate(413px,35.5px) rotate(0deg)}} #esz9UqQXgJN18_tr {animation: esz9UqQXgJN18_tr__tr 3000ms linear infinite normal forwards}@keyframes esz9UqQXgJN18_tr__tr { 0% {transform: translate(420.806001px,66.5001px) rotate(0deg);animation-timing-function: cubic-bezier(0.42,0,0.58,1)} 50% {transform: translate(420.806001px,66.5001px) rotate(-5deg)} 100% {transform: translate(420.806001px,66.5001px) rotate(0deg)}} #esz9UqQXgJN19_to {animation: esz9UqQXgJN19_to__to 3000ms linear infinite normal forwards}@keyframes esz9UqQXgJN19_to__to { 0% {transform: translate(65.75px,74.178919px);animation-timing-function: cubic-bezier(0.42,0,0.58,1)} 50% {transform: translate(65.75px,77.780518px);animation-timing-function: cubic-bezier(0.42,0,0.58,1)} 100% {transform: translate(65.75px,74.178919px)}} #esz9UqQXgJN20_tr {animation: esz9UqQXgJN20_tr__tr 3000ms linear infinite normal forwards}@keyframes esz9UqQXgJN20_tr__tr { 0% {transform: translate(62px,30.436453px) rotate(0deg);animation-timing-function: cubic-bezier(0.42,0,0.58,1)} 50% {transform: translate(62px,30.436453px) rotate(4deg);animation-timing-function: cubic-bezier(0.42,0,0.58,1)} 100% {transform: translate(62px,30.436453px) rotate(0deg)}} #esz9UqQXgJN21_tr {animation: esz9UqQXgJN21_tr__tr 3000ms linear infinite normal forwards}@keyframes esz9UqQXgJN21_tr__tr { 0% {transform: translate(67.5px,33px) rotate(0deg);animation-timing-function: cubic-bezier(0.42,0,0.58,1)} 50% {transform: translate(67.5px,33px) rotate(-4deg);animation-timing-function: cubic-bezier(0.42,0,0.58,1)} 100% {transform: translate(67.5px,33px) rotate(0deg)}} #esz9UqQXgJN22_tr {animation: esz9UqQXgJN22_tr__tr 3000ms linear infinite normal forwards}@keyframes esz9UqQXgJN22_tr__tr { 0% {transform: translate(65.67035px,71.000001px) rotate(0deg);animation-timing-function: cubic-bezier(0.42,0,0.58,1)} 50% {transform: translate(65.67035px,71.000001px) rotate(-4deg);animation-timing-function: cubic-bezier(0.42,0,0.58,1)} 100% {transform: translate(65.67035px,71.000001px) rotate(0deg)}} #esz9UqQXgJN23_tr {animation: esz9UqQXgJN23_tr__tr 3000ms linear infinite normal forwards}@keyframes esz9UqQXgJN23_tr__tr { 0% {transform: translate(51.6073px,67px) rotate(0deg);animation-timing-function: cubic-bezier(0.42,0,0.58,1)} 50% {transform: translate(51.6073px,67px) rotate(2deg);animation-timing-function: cubic-bezier(0.42,0,0.58,1)} 100% {transform: translate(51.6073px,67px) rotate(0deg)}}]]></style><g id="esz9UqQXgJN2_to" transform="translate(239.500145,72.000073)"><g id="esz9UqQXgJN2" transform="translate(-239.500145,-72.000073)"><path id="esz9UqQXgJN3" d="M254.85,1L237.668,61.3975C237.315,62.6385,235.897,63.2254,234.77,62.5967L192.276,38.8846L228.207,68.0287C229.398,68.9952,229.103,70.8881,227.673,71.4454L172,93.1492L230.608,79.1415C231.963,78.8178,233.225,79.9429,233.059,81.3256L225.641,143L243.87,82.625C244.225,81.4484,245.548,80.8676,246.655,81.4021L307,110.545L252.5,74.7178C251.126,73.8144,251.369,71.7306,252.914,71.1675L295.194,55.7612L249.351,64.3428C248.017,64.5926,246.827,63.4686,247,62.1221L254.85,1Z" fill="rgb(15,0,183)" stroke="none" stroke-width="1"/><path id="esz9UqQXgJN4" d="M237.668,61.3975L236.706,61.1239L236.706,61.1239L237.668,61.3975ZM254.85,1L255.842,1.1274C255.909,0.608332,255.564,0.125652,255.052,0.020424C254.539,-0.084804,254.032,0.223013,253.889,0.72637L254.85,1ZM247,62.1221L246.008,61.9947L247,62.1221ZM249.351,64.3428L249.535,65.3257L249.351,64.3428ZM295.194,55.7612L295.536,56.7007C296.025,56.5226,296.296,55.9991,296.158,55.4971C296.021,54.9951,295.521,54.6825,295.01,54.7783L295.194,55.7612ZM252.914,71.1675L253.256,72.107L252.914,71.1675ZM252.5,74.7178L253.049,73.8822L252.5,74.7178ZM307,110.545L306.565,111.446C307.039,111.675,307.61,111.496,307.87,111.038C308.13,110.58,307.989,109.999,307.549,109.709L307,110.545ZM246.655,81.4021L246.22,82.3026L246.22,82.3026L246.655,81.4021ZM243.87,82.625L244.827,82.914L243.87,82.625ZM225.641,143L224.648,142.881C224.586,143.396,224.928,143.872,225.436,143.979C225.943,144.085,226.448,143.786,226.598,143.289L225.641,143ZM233.059,81.3256L232.066,81.2062L232.066,81.2062L233.059,81.3256ZM230.608,79.1415L230.841,80.1141L230.608,79.1415ZM172,93.1492L171.637,92.2175C171.147,92.4085,170.889,92.9461,171.046,93.4478C171.203,93.9495,171.721,94.2441,172.232,94.1218L172,93.1492ZM227.673,71.4454L227.31,70.5137L227.31,70.5137L227.673,71.4454ZM228.207,68.0287L228.837,67.252L228.207,68.0287ZM192.276,38.8846L192.763,38.0114C192.31,37.7585,191.739,37.8943,191.448,38.3239C191.157,38.7536,191.243,39.3344,191.646,39.6613L192.276,38.8846ZM234.77,62.5967L234.283,63.47L234.283,63.47L234.77,62.5967ZM238.63,61.6711L255.812,1.27363L253.889,0.72637L236.706,61.1239L238.63,61.6711ZM253.859,0.872603L246.008,61.9947L247.992,62.2495L255.842,1.1274L253.859,0.872603ZM249.535,65.3257L295.378,56.7441L295.01,54.7783L249.167,63.3598L249.535,65.3257ZM294.852,54.8216L252.572,70.2279L253.256,72.107L295.536,56.7007L294.852,54.8216ZM251.951,75.5534L306.451,111.381L307.549,109.709L253.049,73.8822L251.951,75.5534ZM307.435,109.645L247.089,80.5016L246.22,82.3026L306.565,111.446L307.435,109.645ZM242.913,82.3359L224.683,142.711L226.598,143.289L244.827,82.914L242.913,82.3359ZM226.634,143.119L234.052,81.445L232.066,81.2062L224.648,142.881L226.634,143.119ZM230.376,78.1689L171.768,92.1766L172.232,94.1218L230.841,80.1141L230.376,78.1689ZM172.363,94.0809L228.036,72.3771L227.31,70.5137L171.637,92.2175L172.363,94.0809ZM228.837,67.252L192.906,38.108L191.646,39.6613L227.577,68.8053L228.837,67.252ZM191.788,39.7579L234.283,63.47L235.257,61.7235L192.763,38.0114L191.788,39.7579ZM228.036,72.3771C230.181,71.5412,230.624,68.7018,228.837,67.252L227.577,68.8053C228.173,69.2886,228.025,70.235,227.31,70.5137L228.036,72.3771ZM234.052,81.445C234.301,79.371,232.408,77.6833,230.376,78.1689L230.841,80.1141C231.518,79.9523,232.149,80.5148,232.066,81.2062L234.052,81.445ZM247.089,80.5016C245.429,79.6999,243.446,80.5711,242.913,82.3359L244.827,82.914C245.005,82.3257,245.666,82.0353,246.22,82.3026L247.089,80.5016ZM252.572,70.2279C250.254,71.0725,249.889,74.1982,251.951,75.5534L253.049,73.8822C252.362,73.4305,252.484,72.3886,253.256,72.107L252.572,70.2279ZM246.008,61.9947C245.748,64.0145,247.534,65.7004,249.535,65.3257L249.167,63.3598C248.5,63.4847,247.905,62.9228,247.992,62.2495L246.008,61.9947ZM236.706,61.1239C236.53,61.7444,235.821,62.0378,235.257,61.7235L234.283,63.47C235.973,64.4131,238.1,63.5327,238.63,61.6711L236.706,61.1239Z" fill="rgb(15,0,183)" stroke="none" stroke-width="1"/><g id="esz9UqQXgJN5_to" transform="translate(206.065498,105.102001)"><path id="esz9UqQXgJN5" d="M208.953,102L203.178,108.204" transform="translate(-206.065498,-105.102001)" fill="none" stroke="rgb(15,0,183)" stroke-width="2" stroke-linecap="round"/></g><g id="esz9UqQXgJN6_to" transform="translate(194.482498,63.862148)"><path id="esz9UqQXgJN6" d="M198.629,64.5825L190.336,63.1418" transform="translate(-194.482498,-63.862148)" fill="none" stroke="rgb(15,0,183)" stroke-width="2" stroke-linecap="round"/></g><g id="esz9UqQXgJN7_to" transform="translate(224.707001,34.029751)"><path id="esz9UqQXgJN7" d="M226.414,37.5595L223,30.5" transform="translate(-224.707001,-34.029751)" fill="none" stroke="rgb(15,0,183)" stroke-width="2" stroke-linecap="round"/></g><g id="esz9UqQXgJN8_to" transform="translate(269.466003,39.5508)"><path id="esz9UqQXgJN8" d="M266,42.5639L272.932,36.5377" transform="translate(-269.466003,-39.5508)" fill="none" stroke="rgb(15,0,183)" stroke-width="2" stroke-linecap="round"/></g><g id="esz9UqQXgJN9_to" transform="translate(285.817498,76.700101)"><path id="esz9UqQXgJN9" d="M278.027,75.1753L285.662,76.5755" transform="translate(-281.844498,-75.875401)" fill="none" stroke="rgb(15,0,183)" stroke-width="2" stroke-linecap="round"/></g><g id="esz9UqQXgJN10_to" transform="translate(258.717987,109)"><path id="esz9UqQXgJN10" d="M256.468,105L260.968,113" transform="translate(-258.717987,-109)" fill="none" stroke="rgb(15,0,183)" stroke-width="2" stroke-linecap="round"/></g></g></g><g id="esz9UqQXgJN11_to" transform="translate(415,77.868492)"><g id="esz9UqQXgJN11" transform="translate(-415,-74.237976)"><g id="esz9UqQXgJN12" transform="matrix(1 0 0 1 0.000001 0.000001)"><circle id="esz9UqQXgJN13" r="19.1398" transform="matrix(-0.943594 0.331105 0.331105 0.943594 425.741 49.8435)" fill="rgb(255,251,239)" stroke="rgb(15,0,183)" stroke-width="2"/><circle id="esz9UqQXgJN14" r="8.35106" transform="matrix(-0.86123 0.508215 0.508215 0.86123 420.806 15.8058)" fill="rgb(255,251,239)" stroke="rgb(15,0,183)" stroke-width="2"/></g><g id="esz9UqQXgJN15_tr" transform="translate(437.463917,63.869484) rotate(0)"><path id="esz9UqQXgJN15" d="M434.499,67.4998L431.499,95L456.499,120.5L453.079,133.042C452.462,135.304,455.57,136.598,456.741,134.567L466,118.5L439.782,92L443.782,57" transform="translate(-437.463917,-63.869482)" fill="none" stroke="rgb(15,0,183)" stroke-width="2" stroke-linecap="round"/></g><g id="esz9UqQXgJN16_tr" transform="translate(429.5,31) rotate(0)"><path id="esz9UqQXgJN16" d="M429.5,31C459.5,35.5,470,69,470,69" transform="translate(-429.5,-30.999999)" fill="none" stroke="rgb(15,0,183)" stroke-width="2" stroke-linecap="round"/></g><g id="esz9UqQXgJN17_tr" transform="translate(413,35.5) rotate(0)"><path id="esz9UqQXgJN17" d="M413,35.5C386,72,360,71,360,71" transform="translate(-412.999998,-35.5)" fill="none" stroke="rgb(15,0,183)" stroke-width="2" stroke-linecap="round"/></g><g id="esz9UqQXgJN18_tr" transform="translate(420.806001,66.5001) rotate(0)"><path id="esz9UqQXgJN18" d="M415.941,66.5001L407.499,94.9999L425,132.143L421.194,141.325C420.312,143.456,423.14,145.142,424.594,143.352L433.703,132.143L415.941,95L422.999,69" transform="translate(-420.806001,-66.500098)" fill="none" stroke="rgb(15,0,183)" stroke-width="2" stroke-linecap="round"/></g></g></g><g id="esz9UqQXgJN19_to" transform="translate(65.75,74.178919)"><g id="esz9UqQXgJN19" transform="translate(-65.75,-74.178919)"><g id="esz9UqQXgJN20_tr" transform="translate(62,30.436453) rotate(0)"><path id="esz9UqQXgJN20" d="M62,30.5C26,30.5,7,67.5,7,67.5" transform="translate(-62,-30.436453)" fill="none" stroke="rgb(15,0,183)" stroke-width="2" stroke-linecap="round"/></g><g id="esz9UqQXgJN21_tr" transform="translate(67.5,33) rotate(0)"><path id="esz9UqQXgJN21" d="M67.5,33C88.5,64.5,124.5,67,124.5,67" transform="translate(-67.5,-32.999997)" fill="none" stroke="rgb(15,0,183)" stroke-width="2" stroke-linecap="round"/></g><g id="esz9UqQXgJN22_tr" transform="translate(65.67035,71.000001) rotate(0)"><path id="esz9UqQXgJN22" d="M70.1196,70.6393L79.5144,97.1482L63.722,130.572L72.5187,138.342C74.1003,139.738,72.7209,142.315,70.6815,141.774L51.8263,136.767L70.3491,97.4958L61.5479,71.7567" transform="translate(-65.67035,-70.999998)" fill="none" stroke="rgb(15,0,183)" stroke-width="2" stroke-linecap="round"/></g><g id="esz9UqQXgJN23_tr" transform="translate(51.6073,67) rotate(0)"><path id="esz9UqQXgJN23" d="M43.3928,66.7762L41.8415,92.2013L9.44212,124.442L15.4122,141.614C16.1469,143.728,19.2682,143.224,19.3011,140.987L19.4992,127.5L50.1733,94.7027L51.6073,70.9705" transform="translate(-51.6073,-66.999997)" fill="none" stroke="rgb(15,0,183)" stroke-width="2" stroke-linecap="round"/></g><path id="esz9UqQXgJN24" d="M76.9287,57.9212L76.9287,57.9212C76.5288,56.4559,76.1489,55.035,75.7816,53.6616C74.3252,48.2147,73.0681,43.5137,71.5534,39.7488C69.6554,35.0312,67.466,32.089,64.2802,30.9718C61.052,29.8397,57.7343,30.4895,53.484,32.7967C49.2283,35.1068,44.2299,38.9708,37.6946,44.023L37.593,44.1016C34.0211,46.8628,32.4958,49.5559,32.2044,52.0244C31.9121,54.5015,32.8362,56.9723,34.6223,59.3361C38.2201,64.0976,45.0442,68.0501,50.5946,69.9965C56.0517,71.9103,63.7159,72.1872,69.4756,70.2537C72.3468,69.2899,74.6444,67.8113,76.0025,65.8208C77.3363,63.866,77.8493,61.2934,76.9287,57.9212Z" fill="rgb(255,251,239)" stroke="rgb(15,0,183)" stroke-width="2"/><circle id="esz9UqQXgJN25" r="8.35106" transform="matrix(-0.80452 0.593925 0.593925 0.80452 65.0776 17.0769)" fill="rgb(255,251,239)" stroke="rgb(15,0,183)" stroke-width="2"/></g></g></svg>