<svg width="355px" height="301px" viewBox="0 0 355 301" xmlns="http://www.w3.org/2000/svg">
 <path id="Path" d="M158.045 142.442 L167.415 103.4" fill="none" stroke="#0f00b7" stroke-width="4" stroke-opacity="1" stroke-linejoin="round" stroke-linecap="round"/>
 <path id="Path-1" d="M179.766 133.544 L145.699 112.296" fill="none" stroke="#0f00b7" stroke-width="4" stroke-opacity="1" stroke-linejoin="round" stroke-linecap="round"/>
 <path id="Path-2" d="M182.135 117.745 L143.342 128.099" fill="none" stroke="#0f00b7" stroke-width="4" stroke-opacity="1" stroke-linejoin="round" stroke-linecap="round"/>
 <path id="Path-3" d="M58.207 186.91 C60.69 190.797 65.853 191.936 69.74 189.453 73.627 186.971 74.766 181.807 72.284 177.92 69.801 174.033 64.638 172.894 60.751 175.377 56.864 177.859 55.725 183.023 58.207 186.91 Z" fill="#fffbef" fill-opacity="1" stroke="#0f00b7" stroke-width="2" stroke-opacity="1" stroke-linejoin="round" stroke-linecap="round"/>
 <path id="Path-4" d="M34.629 202.544 C40.664 224.093 51.683 234.7 66.873 232.865 82.118 231.024 93.207 218.267 91.984 195.431 91.924 194.3 90.907 193.472 89.782 193.608 L36.302 200.068 C35.103 200.213 34.303 201.381 34.629 202.544 Z" fill="#fffbef" fill-opacity="1" stroke="#0f00b7" stroke-width="2" stroke-opacity="1" stroke-linejoin="round" stroke-linecap="round"/>
 <path id="Path-5" d="M85.88 222.318 L112.031 225.918 135.243 261.48 144.169 262.312 C146.473 262.526 146.634 265.831 144.361 266.267 L131.449 268.748 107.636 232.639 79.53 228.337" fill="none" stroke="#0f00b7" stroke-width="2" stroke-opacity="1" stroke-linejoin="round" stroke-linecap="round"/>
 <path id="Path-6" d="M52.264 229.909 L70.112 241.442 85.483 252.635 103.581 289.941 116.113 289.233 C118.212 289.115 118.73 286.253 116.806 285.406 L107.776 281.432 91.612 248.429 70.097 232.355" fill="none" stroke="#0f00b7" stroke-width="2" stroke-opacity="1" stroke-linejoin="round" stroke-linecap="round"/>
 <path id="Path-7" d="M90.612 193.397 C119.05 187.702 136.131 151.949 136.131 151.949" fill="none" stroke="#0f00b7" stroke-width="2" stroke-opacity="1" stroke-linejoin="round" stroke-linecap="round"/>
 <path id="Path-8" d="M34.564 200.789 C14.347 225.309 38.581 257.893 38.581 257.893" fill="none" stroke="#0f00b7" stroke-width="2" stroke-opacity="1" stroke-linejoin="round" stroke-linecap="round"/>
 <path id="Path-9" d="M228.635 185.469 C225.43 195.543 230.998 206.306 241.071 209.511 251.145 212.716 261.908 207.148 265.113 197.075 268.318 187.001 262.75 176.238 252.677 173.033 242.603 169.828 231.84 175.396 228.635 185.469 Z" fill="#fffbef" fill-opacity="1" stroke="#0f00b7" stroke-width="2" stroke-opacity="1" stroke-linejoin="round" stroke-linecap="round"/>
 <path id="Path-10" d="M239.066 159.56 C239.022 164.172 242.725 167.947 247.337 167.991 251.949 168.035 255.724 164.332 255.768 159.72 255.812 155.108 252.109 151.333 247.497 151.289 242.885 151.245 239.11 154.948 239.066 159.56 Z" fill="#fffbef" fill-opacity="1" stroke="#0f00b7" stroke-width="2" stroke-opacity="1" stroke-linejoin="round" stroke-linecap="round"/>
 <path id="Path-11" d="M236.039 206.976 L227.81 236.325 247.957 274.785 245.562 286.593 C245.101 288.866 248.228 289.97 249.297 287.912 L257.066 272.946 235.381 235.473 242.267 210.792" fill="none" stroke="#0f00b7" stroke-width="2" stroke-opacity="1" stroke-linejoin="round" stroke-linecap="round"/>
 <path id="Path-12" d="M249.436 211.686 L255.399 237.672 289.094 256.886 288.795 266.912 C288.727 269.191 291.914 269.79 292.679 267.642 L297.644 253.684 261.49 233.218 255.778 208.351" fill="none" stroke="#0f00b7" stroke-width="2" stroke-opacity="1" stroke-linejoin="round" stroke-linecap="round"/>
 <path id="Path-13" d="M241.457 172.782 C205.911 176.991 186.051 146.729 186.051 146.729" fill="none" stroke="#0f00b7" stroke-width="2" stroke-opacity="1" stroke-linejoin="round" stroke-linecap="round"/>
 <path id="Path-14" d="M250.088 172.533 C289.241 177.758 288.806 222.595 288.806 222.595" fill="none" stroke="#0f00b7" stroke-width="2" stroke-opacity="1" stroke-linejoin="round" stroke-linecap="round"/>
 <path id="Path-15" d="M218.605 25.939 C221.764 29.299 227.049 29.461 230.409 26.302 233.769 23.142 233.931 17.857 230.771 14.497 227.612 11.137 222.327 10.975 218.967 14.135 215.607 17.294 215.445 22.58 218.605 25.939 Z" fill="#fffbef" fill-opacity="1" stroke="#0f00b7" stroke-width="2" stroke-opacity="1" stroke-linejoin="round" stroke-linecap="round"/>
 <path id="Path-16" d="M291.529 44.182 C272.506 26.171 249.206 20.336 234.876 32.923 221.793 44.415 227.398 70.586 245.364 87.993 Z" fill="#fffbef" fill-opacity="1" stroke="#0f00b7" stroke-width="2" stroke-opacity="1" stroke-linejoin="round" stroke-linecap="round"/>
 <path id="Path-17" d="M228.269 43.885 C224.327 79.881 189.407 100.156 189.407 100.156" fill="none" stroke="#0f00b7" stroke-width="2" stroke-opacity="1" stroke-linejoin="round" stroke-linecap="round"/>
 <path id="Path-18" d="M258.9 76.565 L279.906 98.272 320.905 100.115 326.456 112.016 C327.428 114.101 330.574 113.165 330.248 110.888 L327.536 91.913 282.299 91.581 263.208 70.783" fill="none" stroke="#0f00b7" stroke-width="2" stroke-opacity="1" stroke-linejoin="round" stroke-linecap="round"/>
 <path id="Path-19" d="M273.416 63.206 L294.788 81.733 344.411 81.704 351.028 91.219 C352.274 93.011 355.081 91.795 354.626 89.66 L351.43 74.687 298.85 75.428 278.547 57.827" fill="none" stroke="#0f00b7" stroke-width="2" stroke-opacity="1" stroke-linejoin="round" stroke-linecap="round"/>
 <path id="Path-20" d="M238.972 30.071 C268.293 12.442 305.589 22.314 305.589 22.314" fill="none" stroke="#0f00b7" stroke-width="2" stroke-opacity="1" stroke-linejoin="round" stroke-linecap="round"/>
 <path id="Path-21" d="M99.422 23.898 C102.917 26.907 108.19 26.514 111.2 23.02 114.21 19.525 113.816 14.252 110.322 11.242 106.827 8.232 101.554 8.625 98.544 12.12 95.534 15.615 95.928 20.888 99.422 23.898 Z" fill="#fffbef" fill-opacity="1" stroke="#0f00b7" stroke-width="2" stroke-opacity="1" stroke-linejoin="round" stroke-linecap="round"/>
 <path id="Path-22" d="M75.761 24.021 L120.576 35.242 C121.647 35.51 122.298 36.596 122.03 37.668 L114.686 66.995 C114.418 68.067 113.332 68.718 112.261 68.45 L67.446 57.229 C66.375 56.96 65.724 55.874 65.992 54.803 L73.335 25.475 C73.604 24.404 74.69 23.752 75.761 24.021 Z" fill="#fffbef" fill-opacity="1" stroke="#0f00b7" stroke-width="2" stroke-opacity="1" stroke-linejoin="round" stroke-linecap="round"/>
 <path id="Path-23" d="M102.69 67.145 L75.221 88.28 54.721 130.574 40.202 130.038 C37.922 129.954 37.539 126.731 39.736 126.114 L49.935 123.253 68.022 84.791 93.488 64.351" fill="none" stroke="#0f00b7" stroke-width="2" stroke-opacity="1" stroke-linejoin="round" stroke-linecap="round"/>
 <path id="Path-24" d="M83.836 61.339 L54.103 80.266 26.009 123.324 10.022 121.14 C7.872 120.847 7.663 117.819 9.752 117.233 L22.982 113.521 47.341 75.877 73.965 58.777" fill="none" stroke="#0f00b7" stroke-width="2" stroke-opacity="1" stroke-linejoin="round" stroke-linecap="round"/>
 <path id="Path-25" d="M121 35.5 C161 55.5 161 91 161 91" fill="none" stroke="#0f00b7" stroke-width="2" stroke-opacity="1" stroke-linejoin="round" stroke-linecap="round"/>
 <path id="Path-26" d="M75 24 C31 21 15.5 1 15.5 1" fill="none" stroke="#0f00b7" stroke-width="2" stroke-opacity="1" stroke-linejoin="round" stroke-linecap="round"/>
</svg>
