<svg width="295px" height="454px" viewBox="0 0 295 454" xmlns="http://www.w3.org/2000/svg">
 <path id="Path" d="M2.622 1.312 L36.711 1.312 C37.435 1.312 38.022 1.9 38.022 2.624 L38.022 72.513 C38.022 73.561 36.855 74.186 35.984 73.604 L21.848 64.174 C20.527 63.292 18.806 63.292 17.485 64.174 L3.349 73.604 C2.478 74.186 1.311 73.561 1.311 72.513 L1.311 2.624 C1.311 1.9 1.898 1.312 2.622 1.312 Z" fill="#fffbef" fill-opacity="1" stroke="#0f00b7" stroke-width="2.623" stroke-opacity="1" stroke-linejoin="round" stroke-linecap="round"/>
 <path id="Path-1" d="M17.823 41.611 L21.509 26.243" fill="none" stroke="#0f00b7" stroke-width="2.623" stroke-opacity="1" stroke-linejoin="round" stroke-linecap="round"/>
 <path id="Path-2" d="M26.367 38.109 L12.967 29.745" fill="none" stroke="#0f00b7" stroke-width="2.623" stroke-opacity="1" stroke-linejoin="round" stroke-linecap="round"/>
 <path id="Path-3" d="M27.295 31.889 L12.037 35.965" fill="none" stroke="#0f00b7" stroke-width="2.623" stroke-opacity="1" stroke-linejoin="round" stroke-linecap="round"/>
 <path id="Path-4" d="M2.622 89.225 L36.711 89.225 C37.435 89.225 38.022 89.813 38.022 90.538 L38.022 160.426 C38.022 161.474 36.855 162.099 35.984 161.518 L21.848 152.087 C20.527 151.206 18.806 151.206 17.485 152.087 L3.349 161.518 C2.478 162.099 1.311 161.474 1.311 160.426 L1.311 90.538 C1.311 89.813 1.898 89.225 2.622 89.225 Z" fill="#fffbef" fill-opacity="1" stroke="#0f00b7" stroke-width="2.623" stroke-opacity="1" stroke-linejoin="round" stroke-linecap="round"/>
 <path id="Path-5" d="M17.823 129.524 L21.509 114.156" fill="none" stroke="#0f00b7" stroke-width="2.623" stroke-opacity="1" stroke-linejoin="round" stroke-linecap="round"/>
 <path id="Path-6" d="M26.367 126.022 L12.967 117.658" fill="none" stroke="#0f00b7" stroke-width="2.623" stroke-opacity="1" stroke-linejoin="round" stroke-linecap="round"/>
 <path id="Path-7" d="M27.295 119.802 L12.037 123.878" fill="none" stroke="#0f00b7" stroke-width="2.623" stroke-opacity="1" stroke-linejoin="round" stroke-linecap="round"/>
 <path id="Path-8" d="M2.622 177.139 L36.711 177.139 C37.435 177.139 38.022 177.727 38.022 178.451 L38.022 248.339 C38.022 249.388 36.855 250.012 35.984 249.431 L21.848 240.001 C20.527 239.119 18.806 239.119 17.485 240.001 L3.349 249.431 C2.478 250.012 1.311 249.388 1.311 248.339 L1.311 178.451 C1.311 177.727 1.898 177.139 2.622 177.139 Z" fill="#fffbef" fill-opacity="1" stroke="#0f00b7" stroke-width="2.623" stroke-opacity="1" stroke-linejoin="round" stroke-linecap="round"/>
 <path id="Path-9" d="M17.823 217.438 L21.509 202.069" fill="none" stroke="#0f00b7" stroke-width="2.623" stroke-opacity="1" stroke-linejoin="round" stroke-linecap="round"/>
 <path id="Path-10" d="M26.367 213.935 L12.967 205.571" fill="none" stroke="#0f00b7" stroke-width="2.623" stroke-opacity="1" stroke-linejoin="round" stroke-linecap="round"/>
 <path id="Path-11" d="M27.295 207.715 L12.037 211.791" fill="none" stroke="#0f00b7" stroke-width="2.623" stroke-opacity="1" stroke-linejoin="round" stroke-linecap="round"/>
 <path id="Path-12" d="M2.622 265.052 L36.711 265.052 C37.435 265.052 38.022 265.64 38.022 266.364 L38.022 336.253 C38.022 337.301 36.855 337.926 35.984 337.344 L21.848 327.914 C20.527 327.032 18.806 327.032 17.485 327.914 L3.349 337.344 C2.478 337.926 1.311 337.301 1.311 336.253 L1.311 266.364 C1.311 265.64 1.898 265.052 2.622 265.052 Z" fill="#fffbef" fill-opacity="1" stroke="#0f00b7" stroke-width="2.623" stroke-opacity="1" stroke-linejoin="round" stroke-linecap="round"/>
 <path id="Path-13" d="M17.823 305.352 L21.509 289.983" fill="none" stroke="#0f00b7" stroke-width="2.623" stroke-opacity="1" stroke-linejoin="round" stroke-linecap="round"/>
 <path id="Path-14" d="M26.367 301.848 L12.967 293.485" fill="none" stroke="#0f00b7" stroke-width="2.623" stroke-opacity="1" stroke-linejoin="round" stroke-linecap="round"/>
 <path id="Path-15" d="M27.295 295.629 L12.037 299.704" fill="none" stroke="#0f00b7" stroke-width="2.623" stroke-opacity="1" stroke-linejoin="round" stroke-linecap="round"/>
 <path id="Path-16" d="M52.444 1.312 L86.533 1.312 C87.257 1.312 87.844 1.9 87.844 2.624 L87.844 72.513 C87.844 73.561 86.677 74.186 85.806 73.604 L71.671 64.174 C70.35 63.292 68.628 63.292 67.307 64.174 L53.172 73.604 C52.3 74.186 51.133 73.561 51.133 72.513 L51.133 2.624 C51.133 1.9 51.72 1.312 52.444 1.312 Z" fill="#fffbef" fill-opacity="1" stroke="#0f00b7" stroke-width="2.623" stroke-opacity="1" stroke-linejoin="round" stroke-linecap="round"/>
 <path id="Path-17" d="M67.645 41.611 L71.331 26.243" fill="none" stroke="#0f00b7" stroke-width="2.623" stroke-opacity="1" stroke-linejoin="round" stroke-linecap="round"/>
 <path id="Path-18" d="M76.189 38.109 L62.789 29.745" fill="none" stroke="#0f00b7" stroke-width="2.623" stroke-opacity="1" stroke-linejoin="round" stroke-linecap="round"/>
 <path id="Path-19" d="M77.118 31.889 L61.859 35.965" fill="none" stroke="#0f00b7" stroke-width="2.623" stroke-opacity="1" stroke-linejoin="round" stroke-linecap="round"/>
 <path id="Path-20" d="M52.444 89.225 L86.533 89.225 C87.257 89.225 87.844 89.813 87.844 90.538 L87.844 160.426 C87.844 161.474 86.677 162.099 85.806 161.518 L71.671 152.087 C70.35 151.206 68.628 151.206 67.307 152.087 L53.172 161.518 C52.3 162.099 51.133 161.474 51.133 160.426 L51.133 90.538 C51.133 89.813 51.72 89.225 52.444 89.225 Z" fill="#fffbef" fill-opacity="1" stroke="#0f00b7" stroke-width="2.623" stroke-opacity="1" stroke-linejoin="round" stroke-linecap="round"/>
 <path id="Path-21" d="M67.645 129.524 L71.331 114.156" fill="none" stroke="#0f00b7" stroke-width="2.623" stroke-opacity="1" stroke-linejoin="round" stroke-linecap="round"/>
 <path id="Path-22" d="M76.189 126.022 L62.789 117.658" fill="none" stroke="#0f00b7" stroke-width="2.623" stroke-opacity="1" stroke-linejoin="round" stroke-linecap="round"/>
 <path id="Path-23" d="M77.118 119.802 L61.859 123.878" fill="none" stroke="#0f00b7" stroke-width="2.623" stroke-opacity="1" stroke-linejoin="round" stroke-linecap="round"/>
 <path id="Path-24" d="M52.444 177.139 L86.533 177.139 C87.257 177.139 87.844 177.727 87.844 178.451 L87.844 248.339 C87.844 249.388 86.677 250.012 85.806 249.431 L71.671 240.001 C70.35 239.119 68.628 239.119 67.307 240.001 L53.172 249.431 C52.3 250.012 51.133 249.388 51.133 248.339 L51.133 178.451 C51.133 177.727 51.72 177.139 52.444 177.139 Z" fill="#fffbef" fill-opacity="1" stroke="#0f00b7" stroke-width="2.623" stroke-opacity="1" stroke-linejoin="round" stroke-linecap="round"/>
 <path id="Path-25" d="M67.645 217.438 L71.331 202.069" fill="none" stroke="#0f00b7" stroke-width="2.623" stroke-opacity="1" stroke-linejoin="round" stroke-linecap="round"/>
 <path id="Path-26" d="M76.189 213.935 L62.789 205.571" fill="none" stroke="#0f00b7" stroke-width="2.623" stroke-opacity="1" stroke-linejoin="round" stroke-linecap="round"/>
 <path id="Path-27" d="M77.118 207.715 L61.859 211.791" fill="none" stroke="#0f00b7" stroke-width="2.623" stroke-opacity="1" stroke-linejoin="round" stroke-linecap="round"/>
 <path id="Path-28" d="M52.444 265.052 L86.533 265.052 C87.257 265.052 87.844 265.64 87.844 266.364 L87.844 336.253 C87.844 337.301 86.677 337.926 85.806 337.344 L71.671 327.914 C70.35 327.032 68.628 327.032 67.307 327.914 L53.172 337.344 C52.3 337.926 51.133 337.301 51.133 336.253 L51.133 266.364 C51.133 265.64 51.72 265.052 52.444 265.052 Z" fill="#fffbef" fill-opacity="1" stroke="#0f00b7" stroke-width="2.623" stroke-opacity="1" stroke-linejoin="round" stroke-linecap="round"/>
 <path id="Path-29" d="M67.645 305.352 L71.331 289.983" fill="none" stroke="#0f00b7" stroke-width="2.623" stroke-opacity="1" stroke-linejoin="round" stroke-linecap="round"/>
 <path id="Path-30" d="M76.189 301.848 L62.789 293.485" fill="none" stroke="#0f00b7" stroke-width="2.623" stroke-opacity="1" stroke-linejoin="round" stroke-linecap="round"/>
 <path id="Path-31" d="M77.118 295.629 L61.859 299.704" fill="none" stroke="#0f00b7" stroke-width="2.623" stroke-opacity="1" stroke-linejoin="round" stroke-linecap="round"/>
 <path id="Path-32" d="M102.267 1.312 L136.356 1.312 C137.079 1.312 137.667 1.9 137.667 2.624 L137.667 72.513 C137.667 73.561 136.5 74.186 135.628 73.604 L121.493 64.174 C120.172 63.292 118.45 63.292 117.129 64.174 L102.994 73.604 C102.123 74.186 100.956 73.561 100.956 72.513 L100.956 2.624 C100.956 1.9 101.543 1.312 102.267 1.312 Z" fill="#fffbef" fill-opacity="1" stroke="#0f00b7" stroke-width="2.623" stroke-opacity="1" stroke-linejoin="round" stroke-linecap="round"/>
 <path id="Path-33" d="M117.467 41.611 L121.153 26.243" fill="none" stroke="#0f00b7" stroke-width="2.623" stroke-opacity="1" stroke-linejoin="round" stroke-linecap="round"/>
 <path id="Path-34" d="M126.011 38.109 L112.611 29.745" fill="none" stroke="#0f00b7" stroke-width="2.623" stroke-opacity="1" stroke-linejoin="round" stroke-linecap="round"/>
 <path id="Path-35" d="M126.94 31.889 L111.681 35.965" fill="none" stroke="#0f00b7" stroke-width="2.623" stroke-opacity="1" stroke-linejoin="round" stroke-linecap="round"/>
 <path id="Path-36" d="M102.267 89.225 L136.356 89.225 C137.079 89.225 137.667 89.813 137.667 90.538 L137.667 160.426 C137.667 161.474 136.5 162.099 135.628 161.518 L121.493 152.087 C120.172 151.206 118.45 151.206 117.129 152.087 L102.994 161.518 C102.123 162.099 100.956 161.474 100.956 160.426 L100.956 90.538 C100.956 89.813 101.543 89.225 102.267 89.225 Z" fill="#fffbef" fill-opacity="1" stroke="#0f00b7" stroke-width="2.623" stroke-opacity="1" stroke-linejoin="round" stroke-linecap="round"/>
 <path id="Path-37" d="M117.467 129.524 L121.153 114.156" fill="none" stroke="#0f00b7" stroke-width="2.623" stroke-opacity="1" stroke-linejoin="round" stroke-linecap="round"/>
 <path id="Path-38" d="M126.011 126.022 L112.611 117.658" fill="none" stroke="#0f00b7" stroke-width="2.623" stroke-opacity="1" stroke-linejoin="round" stroke-linecap="round"/>
 <path id="Path-39" d="M126.94 119.802 L111.681 123.878" fill="none" stroke="#0f00b7" stroke-width="2.623" stroke-opacity="1" stroke-linejoin="round" stroke-linecap="round"/>
 <path id="Path-40" d="M102.267 177.139 L136.356 177.139 C137.079 177.139 137.667 177.727 137.667 178.451 L137.667 248.339 C137.667 249.388 136.5 250.012 135.628 249.431 L121.493 240.001 C120.172 239.119 118.45 239.119 117.129 240.001 L102.994 249.431 C102.123 250.012 100.956 249.388 100.956 248.339 L100.956 178.451 C100.956 177.727 101.543 177.139 102.267 177.139 Z" fill="#fffbef" fill-opacity="1" stroke="#0f00b7" stroke-width="2.623" stroke-opacity="1" stroke-linejoin="round" stroke-linecap="round"/>
 <path id="Path-41" d="M117.467 217.438 L121.153 202.069" fill="none" stroke="#0f00b7" stroke-width="2.623" stroke-opacity="1" stroke-linejoin="round" stroke-linecap="round"/>
 <path id="Path-42" d="M126.011 213.935 L112.611 205.571" fill="none" stroke="#0f00b7" stroke-width="2.623" stroke-opacity="1" stroke-linejoin="round" stroke-linecap="round"/>
 <path id="Path-43" d="M126.94 207.715 L111.681 211.791" fill="none" stroke="#0f00b7" stroke-width="2.623" stroke-opacity="1" stroke-linejoin="round" stroke-linecap="round"/>
 <path id="Path-44" d="M102.267 265.052 L136.356 265.052 C137.079 265.052 137.667 265.64 137.667 266.364 L137.667 336.253 C137.667 337.301 136.5 337.926 135.628 337.344 L121.493 327.914 C120.172 327.032 118.45 327.032 117.129 327.914 L102.994 337.344 C102.123 337.926 100.956 337.301 100.956 336.253 L100.956 266.364 C100.956 265.64 101.543 265.052 102.267 265.052 Z" fill="#fffbef" fill-opacity="1" stroke="#0f00b7" stroke-width="2.623" stroke-opacity="1" stroke-linejoin="round" stroke-linecap="round"/>
 <path id="Path-45" d="M117.467 305.352 L121.153 289.983" fill="none" stroke="#0f00b7" stroke-width="2.623" stroke-opacity="1" stroke-linejoin="round" stroke-linecap="round"/>
 <path id="Path-46" d="M126.011 301.848 L112.611 293.485" fill="none" stroke="#0f00b7" stroke-width="2.623" stroke-opacity="1" stroke-linejoin="round" stroke-linecap="round"/>
 <path id="Path-47" d="M126.94 295.629 L111.681 299.704" fill="none" stroke="#0f00b7" stroke-width="2.623" stroke-opacity="1" stroke-linejoin="round" stroke-linecap="round"/>
 <path id="Path-48" d="M152.089 1.312 L186.178 1.312 C186.902 1.312 187.489 1.9 187.489 2.624 L187.489 72.513 C187.489 73.561 186.322 74.186 185.45 73.604 L171.315 64.174 C169.993 63.292 168.273 63.292 166.952 64.174 L152.817 73.604 C151.945 74.186 150.778 73.561 150.778 72.513 L150.778 2.624 C150.778 1.9 151.365 1.312 152.089 1.312 Z" fill="#fffbef" fill-opacity="1" stroke="#0f00b7" stroke-width="2.623" stroke-opacity="1" stroke-linejoin="round" stroke-linecap="round"/>
 <path id="Path-49" d="M167.29 41.611 L170.975 26.243" fill="none" stroke="#0f00b7" stroke-width="2.623" stroke-opacity="1" stroke-linejoin="round" stroke-linecap="round"/>
 <path id="Path-50" d="M175.833 38.109 L162.434 29.745" fill="none" stroke="#0f00b7" stroke-width="2.623" stroke-opacity="1" stroke-linejoin="round" stroke-linecap="round"/>
 <path id="Path-51" d="M176.763 31.889 L161.504 35.965" fill="none" stroke="#0f00b7" stroke-width="2.623" stroke-opacity="1" stroke-linejoin="round" stroke-linecap="round"/>
 <path id="Path-52" d="M152.089 89.225 L186.178 89.225 C186.902 89.225 187.489 89.813 187.489 90.538 L187.489 160.426 C187.489 161.474 186.322 162.099 185.45 161.518 L171.315 152.087 C169.993 151.206 168.273 151.206 166.952 152.087 L152.817 161.518 C151.945 162.099 150.778 161.474 150.778 160.426 L150.778 90.538 C150.778 89.813 151.365 89.225 152.089 89.225 Z" fill="#fffbef" fill-opacity="1" stroke="#0f00b7" stroke-width="2.623" stroke-opacity="1" stroke-linejoin="round" stroke-linecap="round"/>
 <path id="Path-53" d="M167.29 129.524 L170.975 114.156" fill="none" stroke="#0f00b7" stroke-width="2.623" stroke-opacity="1" stroke-linejoin="round" stroke-linecap="round"/>
 <path id="Path-54" d="M175.833 126.022 L162.434 117.658" fill="none" stroke="#0f00b7" stroke-width="2.623" stroke-opacity="1" stroke-linejoin="round" stroke-linecap="round"/>
 <path id="Path-55" d="M176.763 119.802 L161.504 123.878" fill="none" stroke="#0f00b7" stroke-width="2.623" stroke-opacity="1" stroke-linejoin="round" stroke-linecap="round"/>
 <path id="Path-56" d="M152.089 177.139 L186.178 177.139 C186.902 177.139 187.489 177.727 187.489 178.451 L187.489 248.339 C187.489 249.388 186.322 250.012 185.45 249.431 L171.315 240.001 C169.993 239.119 168.273 239.119 166.952 240.001 L152.817 249.431 C151.945 250.012 150.778 249.388 150.778 248.339 L150.778 178.451 C150.778 177.727 151.365 177.139 152.089 177.139 Z" fill="#fffbef" fill-opacity="1" stroke="#0f00b7" stroke-width="2.623" stroke-opacity="1" stroke-linejoin="round" stroke-linecap="round"/>
 <path id="Path-57" d="M167.29 217.438 L170.975 202.069" fill="none" stroke="#0f00b7" stroke-width="2.623" stroke-opacity="1" stroke-linejoin="round" stroke-linecap="round"/>
 <path id="Path-58" d="M175.833 213.935 L162.434 205.571" fill="none" stroke="#0f00b7" stroke-width="2.623" stroke-opacity="1" stroke-linejoin="round" stroke-linecap="round"/>
 <path id="Path-59" d="M176.763 207.715 L161.504 211.791" fill="none" stroke="#0f00b7" stroke-width="2.623" stroke-opacity="1" stroke-linejoin="round" stroke-linecap="round"/>
 <path id="Path-60" d="M152.089 265.052 L186.178 265.052 C186.902 265.052 187.489 265.64 187.489 266.364 L187.489 336.253 C187.489 337.301 186.322 337.926 185.45 337.344 L171.315 327.914 C169.993 327.032 168.273 327.032 166.952 327.914 L152.817 337.344 C151.945 337.926 150.778 337.301 150.778 336.253 L150.778 266.364 C150.778 265.64 151.365 265.052 152.089 265.052 Z" fill="#fffbef" fill-opacity="1" stroke="#0f00b7" stroke-width="2.623" stroke-opacity="1" stroke-linejoin="round" stroke-linecap="round"/>
 <path id="Path-61" d="M167.29 305.352 L170.975 289.983" fill="none" stroke="#0f00b7" stroke-width="2.623" stroke-opacity="1" stroke-linejoin="round" stroke-linecap="round"/>
 <path id="Path-62" d="M175.833 301.848 L162.434 293.485" fill="none" stroke="#0f00b7" stroke-width="2.623" stroke-opacity="1" stroke-linejoin="round" stroke-linecap="round"/>
 <path id="Path-63" d="M176.763 295.629 L161.504 299.704" fill="none" stroke="#0f00b7" stroke-width="2.623" stroke-opacity="1" stroke-linejoin="round" stroke-linecap="round"/>
 <path id="Path-64" d="M201.911 1.312 L236 1.312 C236.724 1.312 237.311 1.9 237.311 2.624 L237.311 72.513 C237.311 73.561 236.144 74.186 235.272 73.604 L221.137 64.174 C219.816 63.292 218.095 63.292 216.774 64.174 L202.639 73.604 C201.767 74.186 200.6 73.561 200.6 72.513 L200.6 2.624 C200.6 1.9 201.187 1.312 201.911 1.312 Z" fill="#fffbef" fill-opacity="1" stroke="#0f00b7" stroke-width="2.623" stroke-opacity="1" stroke-linejoin="round" stroke-linecap="round"/>
 <path id="Path-65" d="M217.112 41.611 L220.798 26.243" fill="none" stroke="#0f00b7" stroke-width="2.623" stroke-opacity="1" stroke-linejoin="round" stroke-linecap="round"/>
 <path id="Path-66" d="M225.655 38.109 L212.256 29.745" fill="none" stroke="#0f00b7" stroke-width="2.623" stroke-opacity="1" stroke-linejoin="round" stroke-linecap="round"/>
 <path id="Path-67" d="M226.585 31.889 L211.326 35.965" fill="none" stroke="#0f00b7" stroke-width="2.623" stroke-opacity="1" stroke-linejoin="round" stroke-linecap="round"/>
 <path id="Path-68" d="M201.911 89.225 L236 89.225 C236.724 89.225 237.311 89.813 237.311 90.538 L237.311 160.426 C237.311 161.474 236.144 162.099 235.272 161.518 L221.137 152.087 C219.816 151.206 218.095 151.206 216.774 152.087 L202.639 161.518 C201.767 162.099 200.6 161.474 200.6 160.426 L200.6 90.538 C200.6 89.813 201.187 89.225 201.911 89.225 Z" fill="#fffbef" fill-opacity="1" stroke="#0f00b7" stroke-width="2.623" stroke-opacity="1" stroke-linejoin="round" stroke-linecap="round"/>
 <path id="Path-69" d="M217.112 129.524 L220.798 114.156" fill="none" stroke="#0f00b7" stroke-width="2.623" stroke-opacity="1" stroke-linejoin="round" stroke-linecap="round"/>
 <path id="Path-70" d="M225.655 126.022 L212.256 117.658" fill="none" stroke="#0f00b7" stroke-width="2.623" stroke-opacity="1" stroke-linejoin="round" stroke-linecap="round"/>
 <path id="Path-71" d="M226.585 119.802 L211.326 123.878" fill="none" stroke="#0f00b7" stroke-width="2.623" stroke-opacity="1" stroke-linejoin="round" stroke-linecap="round"/>
 <path id="Path-72" d="M201.911 177.139 L236 177.139 C236.724 177.139 237.311 177.727 237.311 178.451 L237.311 248.339 C237.311 249.388 236.144 250.012 235.272 249.431 L221.137 240.001 C219.816 239.119 218.095 239.119 216.774 240.001 L202.639 249.431 C201.767 250.012 200.6 249.388 200.6 248.339 L200.6 178.451 C200.6 177.727 201.187 177.139 201.911 177.139 Z" fill="#fffbef" fill-opacity="1" stroke="#0f00b7" stroke-width="2.623" stroke-opacity="1" stroke-linejoin="round" stroke-linecap="round"/>
 <path id="Path-73" d="M217.112 217.438 L220.798 202.069" fill="none" stroke="#0f00b7" stroke-width="2.623" stroke-opacity="1" stroke-linejoin="round" stroke-linecap="round"/>
 <path id="Path-74" d="M225.655 213.935 L212.256 205.571" fill="none" stroke="#0f00b7" stroke-width="2.623" stroke-opacity="1" stroke-linejoin="round" stroke-linecap="round"/>
 <path id="Path-75" d="M226.585 207.715 L211.326 211.791" fill="none" stroke="#0f00b7" stroke-width="2.623" stroke-opacity="1" stroke-linejoin="round" stroke-linecap="round"/>
 <path id="Path-76" d="M276.637 301.717 C274.088 307.204 267.576 309.585 262.093 307.033 256.609 304.482 254.231 297.965 256.78 292.477 259.33 286.99 265.841 284.609 271.325 287.161 276.808 289.712 279.187 296.229 276.637 301.717 Z" fill="#fffbef" fill-opacity="1" stroke="#0f00b7" stroke-width="2.623" stroke-opacity="1" stroke-linejoin="round" stroke-linecap="round"/>
 <path id="Path-77" d="M278.903 331.042 C281.306 342.718 273.797 354.132 262.13 356.537 250.464 358.943 239.058 351.427 236.655 339.752 234.252 328.076 241.761 316.662 253.427 314.257 265.094 311.852 276.499 319.367 278.903 331.042 Z" fill="#fffbef" fill-opacity="1" stroke="#0f00b7" stroke-width="2.623" stroke-opacity="1" stroke-linejoin="round" stroke-linecap="round"/>
 <path id="Path-78" d="M235.83 341.5 L202.807 358.499 177.481 402.35 161.213 406.504 C158.471 407.204 158.629 411.156 161.419 411.634 L181.581 415.087 210.867 365.498 240.708 349.524" fill="none" stroke="#0f00b7" stroke-width="2.623" stroke-opacity="1" stroke-linejoin="round" stroke-linecap="round"/>
 <path id="Path-79" d="M258.289 313.601 C215.021 309.009 202.567 271.613 202.567 271.613" fill="none" stroke="#0f00b7" stroke-width="2.623" stroke-opacity="1" stroke-linejoin="round" stroke-linecap="round"/>
 <path id="Path-80" d="M247.8 356.246 L226.167 381.832 253.044 421.853 250.271 438.502 C249.789 441.403 253.71 442.783 255.146 440.216 L266.156 420.54 237.967 381.832 259.6 357.558" fill="none" stroke="#0f00b7" stroke-width="2.623" stroke-opacity="1" stroke-linejoin="round" stroke-linecap="round"/>
 <path id="Path-81" d="M269.433 316.882 C302.211 337.22 291.722 391.017 291.722 391.017" fill="none" stroke="#0f00b7" stroke-width="2.623" stroke-opacity="1" stroke-linejoin="round" stroke-linecap="round"/>
</svg>
